<svg width="739" height="261" viewBox="0 0 739 261" fill="none" xmlns="http://www.w3.org/2000/svg">
<path d="M161.948 97.5H152.148V90.8H134.248V151.2H152.148V144.5H161.948V154.4L155.348 161H131.048L124.448 154.4V87.6L131.048 81H148.048L152.148 85.1V81H161.948V97.5ZM174.115 161L167.515 154.4V87.6L174.115 81H200.915L207.515 87.6V154.4L200.915 161H174.115ZM197.615 90.8H177.315V151.2H197.615V90.8ZM258.254 151.2V161H246.354L235.754 125H230.554V151.2H235.454V161H215.854V151.2H220.754V90.8H215.854V81H251.554L258.254 87.6V118.4L251.554 125H245.954L253.654 151.2H258.254ZM230.554 115.2H248.454V90.8H230.554V115.2ZM281.043 90.8V151.2H285.943V161H266.343V151.2H271.243V90.8H266.343V81H285.943V90.8H281.043ZM344.177 81V90.8H338.977V161H329.177L308.777 107.1V151.2H313.677V161H294.077V151.2H298.977V90.8H294.077V81H308.777L329.177 131.2V90.8H324.577V81H344.177ZM392.085 81V97.5H382.285V90.8H376.985V151.2H381.885V161H362.285V151.2H367.185V90.8H361.885V97.5H352.085V81H392.085ZM438.267 90.8V151.2H443.167V161H423.567V151.2H428.367V125H413.367V151.2H418.267V161H398.667V151.2H403.567V90.8H398.667V81H418.267V90.8H413.367V115.2H428.367V90.8H423.567V81H443.167V90.8H438.267ZM466.004 90.8V151.2H470.904V161H451.304V151.2H456.204V90.8H451.304V81H470.904V90.8H466.004ZM524.238 151.1V161H504.538V151.1H508.438L507.638 144.3H495.738L494.838 151.1H498.738V161H479.038V151.1H484.938L493.738 81H509.538L518.438 151.1H524.238ZM506.338 134.5L501.638 97.4L496.938 134.5H506.338ZM581.384 81V90.8H576.184V161H566.384L545.984 107.1V151.2H550.884V161H531.284V151.2H536.184V90.8H531.284V81H545.984L566.384 131.2V90.8H561.784V81H581.384ZM616.992 97.5V90.8H599.092V115.2H620.192L626.792 121.8V154.4L620.192 161H603.192L599.092 156.9V161H589.292V144.5H599.092V151.2H616.992V125H595.892L589.292 118.4V87.6L595.892 81H612.892L616.992 85.1V81H626.792V97.5H616.992ZM244.778 187.6V218.4L238.178 225H217.078V251.2H221.978V261H202.378V251.2H207.278V190.8H202.378V181H238.178L244.778 187.6ZM234.978 190.8H217.078V215.2H234.978V190.8ZM287.812 251.1V261H268.112V251.1H272.012L271.212 244.3H259.312L258.412 251.1H262.312V261H242.612V251.1H248.512L257.312 181H273.112L282.012 251.1H287.812ZM269.912 234.5L265.212 197.4L260.512 234.5H269.912ZM338.745 190.8H333.845V254.4L327.245 261H302.745L296.145 254.4V190.8H291.245V181H310.945V190.8H306.045V251.2H324.045V190.8H319.145V181H338.745V190.8ZM388.919 244.5V261H346.519V251.2H351.419V190.8H346.519V181H366.119V190.8H361.219V251.2H379.119V244.5H388.919ZM408.191 190.8V251.2H413.091V261H393.491V251.2H398.391V190.8H393.491V181H413.091V190.8H408.191ZM448.926 197.5V190.8H431.026V215.2H452.126L458.726 221.8V254.4L452.126 261H435.126L431.026 256.9V261H421.226V244.5H431.026V251.2H448.926V225H427.826L421.226 218.4V187.6L427.826 181H444.826L448.926 185.1V181H458.726V197.5H448.926ZM506.05 181V197.5H496.25V190.8H490.95V251.2H495.85V261H476.25V251.2H481.15V190.8H475.85V197.5H466.05V181H506.05ZM549.14 251.1V261H529.44V251.1H533.34L532.54 244.3H520.64L519.74 251.1H523.64V261H503.94V251.1H509.84L518.64 181H534.44L543.34 251.1H549.14ZM531.24 234.5L526.54 197.4L521.84 234.5H531.24Z" fill="white"/>
<path d="M161.948 97.5V99.5H163.948V97.5H161.948ZM152.148 97.5H150.148V99.5H152.148V97.5ZM152.148 90.8H154.148V88.8H152.148V90.8ZM134.248 90.8V88.8H132.248V90.8H134.248ZM134.248 151.2H132.248V153.2H134.248V151.2ZM152.148 151.2V153.2H154.148V151.2H152.148ZM152.148 144.5V142.5H150.148V144.5H152.148ZM161.948 144.5H163.948V142.5H161.948V144.5ZM161.948 154.4L163.362 155.814L163.948 155.228V154.4H161.948ZM155.348 161V163H156.177L156.762 162.414L155.348 161ZM131.048 161L129.634 162.414L130.22 163H131.048V161ZM124.448 154.4H122.448V155.228L123.034 155.814L124.448 154.4ZM124.448 87.6L123.034 86.1858L122.448 86.7716V87.6H124.448ZM131.048 81V79H130.22L129.634 79.5858L131.048 81ZM148.048 81L149.462 79.5858L148.877 79H148.048V81ZM152.148 85.1L150.734 86.5142L154.148 89.9284V85.1H152.148ZM152.148 81V79H150.148V81H152.148ZM161.948 81H163.948V79H161.948V81ZM161.948 95.5H152.148V99.5H161.948V95.5ZM154.148 97.5V90.8H150.148V97.5H154.148ZM152.148 88.8H134.248V92.8H152.148V88.8ZM132.248 90.8V151.2H136.248V90.8H132.248ZM134.248 153.2H152.148V149.2H134.248V153.2ZM154.148 151.2V144.5H150.148V151.2H154.148ZM152.148 146.5H161.948V142.5H152.148V146.5ZM159.948 144.5V154.4H163.948V144.5H159.948ZM160.534 152.986L153.934 159.586L156.762 162.414L163.362 155.814L160.534 152.986ZM155.348 159H131.048V163H155.348V159ZM132.462 159.586L125.862 152.986L123.034 155.814L129.634 162.414L132.462 159.586ZM126.448 154.4V87.6H122.448V154.4H126.448ZM125.862 89.0142L132.462 82.4142L129.634 79.5858L123.034 86.1858L125.862 89.0142ZM131.048 83H148.048V79H131.048V83ZM146.634 82.4142L150.734 86.5142L153.562 83.6858L149.462 79.5858L146.634 82.4142ZM154.148 85.1V81H150.148V85.1H154.148ZM152.148 83H161.948V79H152.148V83ZM159.948 81V97.5H163.948V81H159.948ZM174.115 161L172.7 162.414L173.286 163H174.115V161ZM167.515 154.4H165.515V155.228L166.1 155.814L167.515 154.4ZM167.515 87.6L166.1 86.1858L165.515 86.7716V87.6H167.515ZM174.115 81V79H173.286L172.7 79.5858L174.115 81ZM200.915 81L202.329 79.5858L201.743 79H200.915V81ZM207.515 87.6H209.515V86.7716L208.929 86.1858L207.515 87.6ZM207.515 154.4L208.929 155.814L209.515 155.228V154.4H207.515ZM200.915 161V163H201.743L202.329 162.414L200.915 161ZM197.615 90.8H199.615V88.8H197.615V90.8ZM177.315 90.8V88.8H175.315V90.8H177.315ZM177.315 151.2H175.315V153.2H177.315V151.2ZM197.615 151.2V153.2H199.615V151.2H197.615ZM175.529 159.586L168.929 152.986L166.1 155.814L172.7 162.414L175.529 159.586ZM169.515 154.4V87.6H165.515V154.4H169.515ZM168.929 89.0142L175.529 82.4142L172.7 79.5858L166.1 86.1858L168.929 89.0142ZM174.115 83H200.915V79H174.115V83ZM199.5 82.4142L206.1 89.0142L208.929 86.1858L202.329 79.5858L199.5 82.4142ZM205.515 87.6V154.4H209.515V87.6H205.515ZM206.1 152.986L199.5 159.586L202.329 162.414L208.929 155.814L206.1 152.986ZM200.915 159H174.115V163H200.915V159ZM197.615 88.8H177.315V92.8H197.615V88.8ZM175.315 90.8V151.2H179.315V90.8H175.315ZM177.315 153.2H197.615V149.2H177.315V153.2ZM199.615 151.2V90.8H195.615V151.2H199.615ZM258.254 151.2H260.254V149.2H258.254V151.2ZM258.254 161V163H260.254V161H258.254ZM246.354 161L244.436 161.565L244.858 163H246.354V161ZM235.754 125L237.673 124.435L237.25 123H235.754V125ZM230.554 125V123H228.554V125H230.554ZM230.554 151.2H228.554V153.2H230.554V151.2ZM235.454 151.2H237.454V149.2H235.454V151.2ZM235.454 161V163H237.454V161H235.454ZM215.854 161H213.854V163H215.854V161ZM215.854 151.2V149.2H213.854V151.2H215.854ZM220.754 151.2V153.2H222.754V151.2H220.754ZM220.754 90.8H222.754V88.8H220.754V90.8ZM215.854 90.8H213.854V92.8H215.854V90.8ZM215.854 81V79H213.854V81H215.854ZM251.554 81L252.958 79.5752L252.374 79H251.554V81ZM258.254 87.6H260.254V86.7627L259.658 86.1752L258.254 87.6ZM258.254 118.4L259.658 119.825L260.254 119.237V118.4H258.254ZM251.554 125V127H252.374L252.958 126.425L251.554 125ZM245.954 125V123H243.282L244.036 125.564L245.954 125ZM253.654 151.2L251.736 151.764L252.158 153.2H253.654V151.2ZM230.554 115.2H228.554V117.2H230.554V115.2ZM248.454 115.2V117.2H250.454V115.2H248.454ZM248.454 90.8H250.454V88.8H248.454V90.8ZM230.554 90.8V88.8H228.554V90.8H230.554ZM256.254 151.2V161H260.254V151.2H256.254ZM258.254 159H246.354V163H258.254V159ZM248.273 160.435L237.673 124.435L233.836 125.565L244.436 161.565L248.273 160.435ZM235.754 123H230.554V127H235.754V123ZM228.554 125V151.2H232.554V125H228.554ZM230.554 153.2H235.454V149.2H230.554V153.2ZM233.454 151.2V161H237.454V151.2H233.454ZM235.454 159H215.854V163H235.454V159ZM217.854 161V151.2H213.854V161H217.854ZM215.854 153.2H220.754V149.2H215.854V153.2ZM222.754 151.2V90.8H218.754V151.2H222.754ZM220.754 88.8H215.854V92.8H220.754V88.8ZM217.854 90.8V81H213.854V90.8H217.854ZM215.854 83H251.554V79H215.854V83ZM250.151 82.4248L256.851 89.0248L259.658 86.1752L252.958 79.5752L250.151 82.4248ZM256.254 87.6V118.4H260.254V87.6H256.254ZM256.851 116.975L250.151 123.575L252.958 126.425L259.658 119.825L256.851 116.975ZM251.554 123H245.954V127H251.554V123ZM244.036 125.564L251.736 151.764L255.573 150.636L247.873 124.436L244.036 125.564ZM253.654 153.2H258.254V149.2H253.654V153.2ZM230.554 117.2H248.454V113.2H230.554V117.2ZM250.454 115.2V90.8H246.454V115.2H250.454ZM248.454 88.8H230.554V92.8H248.454V88.8ZM228.554 90.8V115.2H232.554V90.8H228.554ZM281.043 90.8V88.8H279.043V90.8H281.043ZM281.043 151.2H279.043V153.2H281.043V151.2ZM285.943 151.2H287.943V149.2H285.943V151.2ZM285.943 161V163H287.943V161H285.943ZM266.343 161H264.343V163H266.343V161ZM266.343 151.2V149.2H264.343V151.2H266.343ZM271.243 151.2V153.2H273.243V151.2H271.243ZM271.243 90.8H273.243V88.8H271.243V90.8ZM266.343 90.8H264.343V92.8H266.343V90.8ZM266.343 81V79H264.343V81H266.343ZM285.943 81H287.943V79H285.943V81ZM285.943 90.8V92.8H287.943V90.8H285.943ZM279.043 90.8V151.2H283.043V90.8H279.043ZM281.043 153.2H285.943V149.2H281.043V153.2ZM283.943 151.2V161H287.943V151.2H283.943ZM285.943 159H266.343V163H285.943V159ZM268.343 161V151.2H264.343V161H268.343ZM266.343 153.2H271.243V149.2H266.343V153.2ZM273.243 151.2V90.8H269.243V151.2H273.243ZM271.243 88.8H266.343V92.8H271.243V88.8ZM268.343 90.8V81H264.343V90.8H268.343ZM266.343 83H285.943V79H266.343V83ZM283.943 81V90.8H287.943V81H283.943ZM285.943 88.8H281.043V92.8H285.943V88.8ZM344.177 81H346.177V79H344.177V81ZM344.177 90.8V92.8H346.177V90.8H344.177ZM338.977 90.8V88.8H336.977V90.8H338.977ZM338.977 161V163H340.977V161H338.977ZM329.177 161L327.307 161.708L327.796 163H329.177V161ZM308.777 107.1L310.648 106.392L306.777 107.1H308.777ZM308.777 151.2H306.777V153.2H308.777V151.2ZM313.677 151.2H315.677V149.2H313.677V151.2ZM313.677 161V163H315.677V161H313.677ZM294.077 161H292.077V163H294.077V161ZM294.077 151.2V149.2H292.077V151.2H294.077ZM298.977 151.2V153.2H300.977V151.2H298.977ZM298.977 90.8H300.977V88.8H298.977V90.8ZM294.077 90.8H292.077V92.8H294.077V90.8ZM294.077 81V79H292.077V81H294.077ZM308.777 81L310.63 80.247L310.123 79H308.777V81ZM329.177 131.2L327.324 131.953L331.177 131.2H329.177ZM329.177 90.8H331.177V88.8H329.177V90.8ZM324.577 90.8H322.577V92.8H324.577V90.8ZM324.577 81V79H322.577V81H324.577ZM342.177 81V90.8H346.177V81H342.177ZM344.177 88.8H338.977V92.8H344.177V88.8ZM336.977 90.8V161H340.977V90.8H336.977ZM338.977 159H329.177V163H338.977V159ZM331.048 160.292L310.648 106.392L306.907 107.808L327.307 161.708L331.048 160.292ZM306.777 107.1V151.2H310.777V107.1H306.777ZM308.777 153.2H313.677V149.2H308.777V153.2ZM311.677 151.2V161H315.677V151.2H311.677ZM313.677 159H294.077V163H313.677V159ZM296.077 161V151.2H292.077V161H296.077ZM294.077 153.2H298.977V149.2H294.077V153.2ZM300.977 151.2V90.8H296.977V151.2H300.977ZM298.977 88.8H294.077V92.8H298.977V88.8ZM296.077 90.8V81H292.077V90.8H296.077ZM294.077 83H308.777V79H294.077V83ZM306.924 81.753L327.324 131.953L331.03 130.447L310.63 80.247L306.924 81.753ZM331.177 131.2V90.8H327.177V131.2H331.177ZM329.177 88.8H324.577V92.8H329.177V88.8ZM326.577 90.8V81H322.577V90.8H326.577ZM324.577 83H344.177V79H324.577V83ZM392.085 81H394.085V79H392.085V81ZM392.085 97.5V99.5H394.085V97.5H392.085ZM382.285 97.5H380.285V99.5H382.285V97.5ZM382.285 90.8H384.285V88.8H382.285V90.8ZM376.985 90.8V88.8H374.985V90.8H376.985ZM376.985 151.2H374.985V153.2H376.985V151.2ZM381.885 151.2H383.885V149.2H381.885V151.2ZM381.885 161V163H383.885V161H381.885ZM362.285 161H360.285V163H362.285V161ZM362.285 151.2V149.2H360.285V151.2H362.285ZM367.185 151.2V153.2H369.185V151.2H367.185ZM367.185 90.8H369.185V88.8H367.185V90.8ZM361.885 90.8V88.8H359.885V90.8H361.885ZM361.885 97.5V99.5H363.885V97.5H361.885ZM352.085 97.5H350.085V99.5H352.085V97.5ZM352.085 81V79H350.085V81H352.085ZM390.085 81V97.5H394.085V81H390.085ZM392.085 95.5H382.285V99.5H392.085V95.5ZM384.285 97.5V90.8H380.285V97.5H384.285ZM382.285 88.8H376.985V92.8H382.285V88.8ZM374.985 90.8V151.2H378.985V90.8H374.985ZM376.985 153.2H381.885V149.2H376.985V153.2ZM379.885 151.2V161H383.885V151.2H379.885ZM381.885 159H362.285V163H381.885V159ZM364.285 161V151.2H360.285V161H364.285ZM362.285 153.2H367.185V149.2H362.285V153.2ZM369.185 151.2V90.8H365.185V151.2H369.185ZM367.185 88.8H361.885V92.8H367.185V88.8ZM359.885 90.8V97.5H363.885V90.8H359.885ZM361.885 95.5H352.085V99.5H361.885V95.5ZM354.085 97.5V81H350.085V97.5H354.085ZM352.085 83H392.085V79H352.085V83ZM438.267 90.8V88.8H436.267V90.8H438.267ZM438.267 151.2H436.267V153.2H438.267V151.2ZM443.167 151.2H445.167V149.2H443.167V151.2ZM443.167 161V163H445.167V161H443.167ZM423.567 161H421.567V163H423.567V161ZM423.567 151.2V149.2H421.567V151.2H423.567ZM428.367 151.2V153.2H430.367V151.2H428.367ZM428.367 125H430.367V123H428.367V125ZM413.367 125V123H411.367V125H413.367ZM413.367 151.2H411.367V153.2H413.367V151.2ZM418.267 151.2H420.267V149.2H418.267V151.2ZM418.267 161V163H420.267V161H418.267ZM398.667 161H396.667V163H398.667V161ZM398.667 151.2V149.2H396.667V151.2H398.667ZM403.567 151.2V153.2H405.567V151.2H403.567ZM403.567 90.8H405.567V88.8H403.567V90.8ZM398.667 90.8H396.667V92.8H398.667V90.8ZM398.667 81V79H396.667V81H398.667ZM418.267 81H420.267V79H418.267V81ZM418.267 90.8V92.8H420.267V90.8H418.267ZM413.367 90.8V88.8H411.367V90.8H413.367ZM413.367 115.2H411.367V117.2H413.367V115.2ZM428.367 115.2V117.2H430.367V115.2H428.367ZM428.367 90.8H430.367V88.8H428.367V90.8ZM423.567 90.8H421.567V92.8H423.567V90.8ZM423.567 81V79H421.567V81H423.567ZM443.167 81H445.167V79H443.167V81ZM443.167 90.8V92.8H445.167V90.8H443.167ZM436.267 90.8V151.2H440.267V90.8H436.267ZM438.267 153.2H443.167V149.2H438.267V153.2ZM441.167 151.2V161H445.167V151.2H441.167ZM443.167 159H423.567V163H443.167V159ZM425.567 161V151.2H421.567V161H425.567ZM423.567 153.2H428.367V149.2H423.567V153.2ZM430.367 151.2V125H426.367V151.2H430.367ZM428.367 123H413.367V127H428.367V123ZM411.367 125V151.2H415.367V125H411.367ZM413.367 153.2H418.267V149.2H413.367V153.2ZM416.267 151.2V161H420.267V151.2H416.267ZM418.267 159H398.667V163H418.267V159ZM400.667 161V151.2H396.667V161H400.667ZM398.667 153.2H403.567V149.2H398.667V153.2ZM405.567 151.2V90.8H401.567V151.2H405.567ZM403.567 88.8H398.667V92.8H403.567V88.8ZM400.667 90.8V81H396.667V90.8H400.667ZM398.667 83H418.267V79H398.667V83ZM416.267 81V90.8H420.267V81H416.267ZM418.267 88.8H413.367V92.8H418.267V88.8ZM411.367 90.8V115.2H415.367V90.8H411.367ZM413.367 117.2H428.367V113.2H413.367V117.2ZM430.367 115.2V90.8H426.367V115.2H430.367ZM428.367 88.8H423.567V92.8H428.367V88.8ZM425.567 90.8V81H421.567V90.8H425.567ZM423.567 83H443.167V79H423.567V83ZM441.167 81V90.8H445.167V81H441.167ZM443.167 88.8H438.267V92.8H443.167V88.8ZM466.004 90.8V88.8H464.004V90.8H466.004ZM466.004 151.2H464.004V153.2H466.004V151.2ZM470.904 151.2H472.904V149.2H470.904V151.2ZM470.904 161V163H472.904V161H470.904ZM451.304 161H449.304V163H451.304V161ZM451.304 151.2V149.2H449.304V151.2H451.304ZM456.204 151.2V153.2H458.204V151.2H456.204ZM456.204 90.8H458.204V88.8H456.204V90.8ZM451.304 90.8H449.304V92.8H451.304V90.8ZM451.304 81V79H449.304V81H451.304ZM470.904 81H472.904V79H470.904V81ZM470.904 90.8V92.8H472.904V90.8H470.904ZM464.004 90.8V151.2H468.004V90.8H464.004ZM466.004 153.2H470.904V149.2H466.004V153.2ZM468.904 151.2V161H472.904V151.2H468.904ZM470.904 159H451.304V163H470.904V159ZM453.304 161V151.2H449.304V161H453.304ZM451.304 153.2H456.204V149.2H451.304V153.2ZM458.204 151.2V90.8H454.204V151.2H458.204ZM456.204 88.8H451.304V92.8H456.204V88.8ZM453.304 90.8V81H449.304V90.8H453.304ZM451.304 83H470.904V79H451.304V83ZM468.904 81V90.8H472.904V81H468.904ZM470.904 88.8H466.004V92.8H470.904V88.8ZM524.238 151.1H526.238V149.1H524.238V151.1ZM524.238 161V163H526.238V161H524.238ZM504.538 161H502.538V163H504.538V161ZM504.538 151.1V149.1H502.538V151.1H504.538ZM508.438 151.1V153.1H510.687L510.424 150.866L508.438 151.1ZM507.638 144.3L509.624 144.066L509.417 142.3H507.638V144.3ZM495.738 144.3V142.3H493.985L493.755 144.038L495.738 144.3ZM494.838 151.1L492.855 150.838L492.556 153.1H494.838V151.1ZM498.738 151.1H500.738V149.1H498.738V151.1ZM498.738 161V163H500.738V161H498.738ZM479.038 161H477.038V163H479.038V161ZM479.038 151.1V149.1H477.038V151.1H479.038ZM484.938 151.1V153.1H486.703L486.922 151.349L484.938 151.1ZM493.738 81V79H491.973L491.754 80.7509L493.738 81ZM509.538 81L511.522 80.7481L511.3 79H509.538V81ZM518.438 151.1L516.454 151.352L516.676 153.1H518.438V151.1ZM506.338 134.5V136.5H508.607L508.322 134.249L506.338 134.5ZM501.638 97.4L503.622 97.1486H499.654L501.638 97.4ZM496.938 134.5L494.954 134.249L494.669 136.5H496.938V134.5ZM522.238 151.1V161H526.238V151.1H522.238ZM524.238 159H504.538V163H524.238V159ZM506.538 161V151.1H502.538V161H506.538ZM504.538 153.1H508.438V149.1H504.538V153.1ZM510.424 150.866L509.624 144.066L505.652 144.534L506.452 151.334L510.424 150.866ZM507.638 142.3H495.738V146.3H507.638V142.3ZM493.755 144.038L492.855 150.838L496.821 151.362L497.721 144.562L493.755 144.038ZM494.838 153.1H498.738V149.1H494.838V153.1ZM496.738 151.1V161H500.738V151.1H496.738ZM498.738 159H479.038V163H498.738V159ZM481.038 161V151.1H477.038V161H481.038ZM479.038 153.1H484.938V149.1H479.038V153.1ZM486.922 151.349L495.722 81.2491L491.754 80.7509L482.954 150.851L486.922 151.349ZM493.738 83H509.538V79H493.738V83ZM507.554 81.2519L516.454 151.352L520.422 150.848L511.522 80.7481L507.554 81.2519ZM518.438 153.1H524.238V149.1H518.438V153.1ZM508.322 134.249L503.622 97.1486L499.654 97.6514L504.354 134.751L508.322 134.249ZM499.654 97.1486L494.954 134.249L498.922 134.751L503.622 97.6514L499.654 97.1486ZM496.938 136.5H506.338V132.5H496.938V136.5ZM581.384 81H583.384V79H581.384V81ZM581.384 90.8V92.8H583.384V90.8H581.384ZM576.184 90.8V88.8H574.184V90.8H576.184ZM576.184 161V163H578.184V161H576.184ZM566.384 161L564.514 161.708L565.003 163H566.384V161ZM545.984 107.1L547.855 106.392L543.984 107.1H545.984ZM545.984 151.2H543.984V153.2H545.984V151.2ZM550.884 151.2H552.884V149.2H550.884V151.2ZM550.884 161V163H552.884V161H550.884ZM531.284 161H529.284V163H531.284V161ZM531.284 151.2V149.2H529.284V151.2H531.284ZM536.184 151.2V153.2H538.184V151.2H536.184ZM536.184 90.8H538.184V88.8H536.184V90.8ZM531.284 90.8H529.284V92.8H531.284V90.8ZM531.284 81V79H529.284V81H531.284ZM545.984 81L547.837 80.247L547.33 79H545.984V81ZM566.384 131.2L564.531 131.953L568.384 131.2H566.384ZM566.384 90.8H568.384V88.8H566.384V90.8ZM561.784 90.8H559.784V92.8H561.784V90.8ZM561.784 81V79H559.784V81H561.784ZM579.384 81V90.8H583.384V81H579.384ZM581.384 88.8H576.184V92.8H581.384V88.8ZM574.184 90.8V161H578.184V90.8H574.184ZM576.184 159H566.384V163H576.184V159ZM568.255 160.292L547.855 106.392L544.114 107.808L564.514 161.708L568.255 160.292ZM543.984 107.1V151.2H547.984V107.1H543.984ZM545.984 153.2H550.884V149.2H545.984V153.2ZM548.884 151.2V161H552.884V151.2H548.884ZM550.884 159H531.284V163H550.884V159ZM533.284 161V151.2H529.284V161H533.284ZM531.284 153.2H536.184V149.2H531.284V153.2ZM538.184 151.2V90.8H534.184V151.2H538.184ZM536.184 88.8H531.284V92.8H536.184V88.8ZM533.284 90.8V81H529.284V90.8H533.284ZM531.284 83H545.984V79H531.284V83ZM544.131 81.753L564.531 131.953L568.237 130.447L547.837 80.247L544.131 81.753ZM568.384 131.2V90.8H564.384V131.2H568.384ZM566.384 88.8H561.784V92.8H566.384V88.8ZM563.784 90.8V81H559.784V90.8H563.784ZM561.784 83H581.384V79H561.784V83ZM616.992 97.5H614.992V99.5H616.992V97.5ZM616.992 90.8H618.992V88.8H616.992V90.8ZM599.092 90.8V88.8H597.092V90.8H599.092ZM599.092 115.2H597.092V117.2H599.092V115.2ZM620.192 115.2L621.606 113.786L621.02 113.2H620.192V115.2ZM626.792 121.8H628.792V120.972L628.206 120.386L626.792 121.8ZM626.792 154.4L628.206 155.814L628.792 155.228V154.4H626.792ZM620.192 161V163H621.02L621.606 162.414L620.192 161ZM603.192 161L601.778 162.414L602.364 163H603.192V161ZM599.092 156.9L600.506 155.486L597.092 152.072V156.9H599.092ZM599.092 161V163H601.092V161H599.092ZM589.292 161H587.292V163H589.292V161ZM589.292 144.5V142.5H587.292V144.5H589.292ZM599.092 144.5H601.092V142.5H599.092V144.5ZM599.092 151.2H597.092V153.2H599.092V151.2ZM616.992 151.2V153.2H618.992V151.2H616.992ZM616.992 125H618.992V123H616.992V125ZM595.892 125L594.478 126.414L595.063 127H595.892V125ZM589.292 118.4H587.292V119.228L587.878 119.814L589.292 118.4ZM589.292 87.6L587.878 86.1858L587.292 86.7716V87.6H589.292ZM595.892 81V79H595.063L594.478 79.5858L595.892 81ZM612.892 81L614.306 79.5858L613.72 79H612.892V81ZM616.992 85.1L615.578 86.5142L618.992 89.9284V85.1H616.992ZM616.992 81V79H614.992V81H616.992ZM626.792 81H628.792V79H626.792V81ZM626.792 97.5V99.5H628.792V97.5H626.792ZM618.992 97.5V90.8H614.992V97.5H618.992ZM616.992 88.8H599.092V92.8H616.992V88.8ZM597.092 90.8V115.2H601.092V90.8H597.092ZM599.092 117.2H620.192V113.2H599.092V117.2ZM618.778 116.614L625.378 123.214L628.206 120.386L621.606 113.786L618.778 116.614ZM624.792 121.8V154.4H628.792V121.8H624.792ZM625.378 152.986L618.778 159.586L621.606 162.414L628.206 155.814L625.378 152.986ZM620.192 159H603.192V163H620.192V159ZM604.606 159.586L600.506 155.486L597.678 158.314L601.778 162.414L604.606 159.586ZM597.092 156.9V161H601.092V156.9H597.092ZM599.092 159H589.292V163H599.092V159ZM591.292 161V144.5H587.292V161H591.292ZM589.292 146.5H599.092V142.5H589.292V146.5ZM597.092 144.5V151.2H601.092V144.5H597.092ZM599.092 153.2H616.992V149.2H599.092V153.2ZM618.992 151.2V125H614.992V151.2H618.992ZM616.992 123H595.892V127H616.992V123ZM597.306 123.586L590.706 116.986L587.878 119.814L594.478 126.414L597.306 123.586ZM591.292 118.4V87.6H587.292V118.4H591.292ZM590.706 89.0142L597.306 82.4142L594.478 79.5858L587.878 86.1858L590.706 89.0142ZM595.892 83H612.892V79H595.892V83ZM611.478 82.4142L615.578 86.5142L618.406 83.6858L614.306 79.5858L611.478 82.4142ZM618.992 85.1V81H614.992V85.1H618.992ZM616.992 83H626.792V79H616.992V83ZM624.792 81V97.5H628.792V81H624.792ZM626.792 95.5H616.992V99.5H626.792V95.5ZM244.778 187.6H246.778V186.772L246.192 186.186L244.778 187.6ZM244.778 218.4L246.192 219.814L246.778 219.228V218.4H244.778ZM238.178 225V227H239.006L239.592 226.414L238.178 225ZM217.078 225V223H215.078V225H217.078ZM217.078 251.2H215.078V253.2H217.078V251.2ZM221.978 251.2H223.978V249.2H221.978V251.2ZM221.978 261V263H223.978V261H221.978ZM202.378 261H200.378V263H202.378V261ZM202.378 251.2V249.2H200.378V251.2H202.378ZM207.278 251.2V253.2H209.278V251.2H207.278ZM207.278 190.8H209.278V188.8H207.278V190.8ZM202.378 190.8H200.378V192.8H202.378V190.8ZM202.378 181V179H200.378V181H202.378ZM238.178 181L239.592 179.586L239.006 179H238.178V181ZM234.978 190.8H236.978V188.8H234.978V190.8ZM217.078 190.8V188.8H215.078V190.8H217.078ZM217.078 215.2H215.078V217.2H217.078V215.2ZM234.978 215.2V217.2H236.978V215.2H234.978ZM242.778 187.6V218.4H246.778V187.6H242.778ZM243.364 216.986L236.764 223.586L239.592 226.414L246.192 219.814L243.364 216.986ZM238.178 223H217.078V227H238.178V223ZM215.078 225V251.2H219.078V225H215.078ZM217.078 253.2H221.978V249.2H217.078V253.2ZM219.978 251.2V261H223.978V251.2H219.978ZM221.978 259H202.378V263H221.978V259ZM204.378 261V251.2H200.378V261H204.378ZM202.378 253.2H207.278V249.2H202.378V253.2ZM209.278 251.2V190.8H205.278V251.2H209.278ZM207.278 188.8H202.378V192.8H207.278V188.8ZM204.378 190.8V181H200.378V190.8H204.378ZM202.378 183H238.178V179H202.378V183ZM236.764 182.414L243.364 189.014L246.192 186.186L239.592 179.586L236.764 182.414ZM234.978 188.8H217.078V192.8H234.978V188.8ZM215.078 190.8V215.2H219.078V190.8H215.078ZM217.078 217.2H234.978V213.2H217.078V217.2ZM236.978 215.2V190.8H232.978V215.2H236.978ZM287.812 251.1H289.812V249.1H287.812V251.1ZM287.812 261V263H289.812V261H287.812ZM268.112 261H266.112V263H268.112V261ZM268.112 251.1V249.1H266.112V251.1H268.112ZM272.012 251.1V253.1H274.261L273.999 250.866L272.012 251.1ZM271.212 244.3L273.199 244.066L272.991 242.3H271.212V244.3ZM259.312 244.3V242.3H257.56L257.33 244.038L259.312 244.3ZM258.412 251.1L256.43 250.838L256.13 253.1H258.412V251.1ZM262.312 251.1H264.312V249.1H262.312V251.1ZM262.312 261V263H264.312V261H262.312ZM242.612 261H240.612V263H242.612V261ZM242.612 251.1V249.1H240.612V251.1H242.612ZM248.512 251.1V253.1H250.277L250.497 251.349L248.512 251.1ZM257.312 181V179H255.548L255.328 180.751L257.312 181ZM273.112 181L275.096 180.748L274.874 179H273.112V181ZM282.012 251.1L280.028 251.352L280.25 253.1H282.012V251.1ZM269.912 234.5V236.5H272.182L271.896 234.249L269.912 234.5ZM265.212 197.4L267.196 197.149H263.228L265.212 197.4ZM260.512 234.5L258.528 234.249L258.243 236.5H260.512V234.5ZM285.812 251.1V261H289.812V251.1H285.812ZM287.812 259H268.112V263H287.812V259ZM270.112 261V251.1H266.112V261H270.112ZM268.112 253.1H272.012V249.1H268.112V253.1ZM273.999 250.866L273.199 244.066L269.226 244.534L270.026 251.334L273.999 250.866ZM271.212 242.3H259.312V246.3H271.212V242.3ZM257.33 244.038L256.43 250.838L260.395 251.362L261.295 244.562L257.33 244.038ZM258.412 253.1H262.312V249.1H258.412V253.1ZM260.312 251.1V261H264.312V251.1H260.312ZM262.312 259H242.612V263H262.312V259ZM244.612 261V251.1H240.612V261H244.612ZM242.612 253.1H248.512V249.1H242.612V253.1ZM250.497 251.349L259.297 181.249L255.328 180.751L246.528 250.851L250.497 251.349ZM257.312 183H273.112V179H257.312V183ZM271.128 181.252L280.028 251.352L283.996 250.848L275.096 180.748L271.128 181.252ZM282.012 253.1H287.812V249.1H282.012V253.1ZM271.896 234.249L267.196 197.149L263.228 197.651L267.928 234.751L271.896 234.249ZM263.228 197.149L258.528 234.249L262.496 234.751L267.196 197.651L263.228 197.149ZM260.512 236.5H269.912V232.5H260.512V236.5ZM338.745 190.8V192.8H340.745V190.8H338.745ZM333.845 190.8V188.8H331.845V190.8H333.845ZM333.845 254.4L335.259 255.814L335.845 255.228V254.4H333.845ZM327.245 261V263H328.074L328.659 262.414L327.245 261ZM302.745 261L301.331 262.414L301.917 263H302.745V261ZM296.145 254.4H294.145V255.228L294.731 255.814L296.145 254.4ZM296.145 190.8H298.145V188.8H296.145V190.8ZM291.245 190.8H289.245V192.8H291.245V190.8ZM291.245 181V179H289.245V181H291.245ZM310.945 181H312.945V179H310.945V181ZM310.945 190.8V192.8H312.945V190.8H310.945ZM306.045 190.8V188.8H304.045V190.8H306.045ZM306.045 251.2H304.045V253.2H306.045V251.2ZM324.045 251.2V253.2H326.045V251.2H324.045ZM324.045 190.8H326.045V188.8H324.045V190.8ZM319.145 190.8H317.145V192.8H319.145V190.8ZM319.145 181V179H317.145V181H319.145ZM338.745 181H340.745V179H338.745V181ZM338.745 188.8H333.845V192.8H338.745V188.8ZM331.845 190.8V254.4H335.845V190.8H331.845ZM332.431 252.986L325.831 259.586L328.659 262.414L335.259 255.814L332.431 252.986ZM327.245 259H302.745V263H327.245V259ZM304.159 259.586L297.559 252.986L294.731 255.814L301.331 262.414L304.159 259.586ZM298.145 254.4V190.8H294.145V254.4H298.145ZM296.145 188.8H291.245V192.8H296.145V188.8ZM293.245 190.8V181H289.245V190.8H293.245ZM291.245 183H310.945V179H291.245V183ZM308.945 181V190.8H312.945V181H308.945ZM310.945 188.8H306.045V192.8H310.945V188.8ZM304.045 190.8V251.2H308.045V190.8H304.045ZM306.045 253.2H324.045V249.2H306.045V253.2ZM326.045 251.2V190.8H322.045V251.2H326.045ZM324.045 188.8H319.145V192.8H324.045V188.8ZM321.145 190.8V181H317.145V190.8H321.145ZM319.145 183H338.745V179H319.145V183ZM336.745 181V190.8H340.745V181H336.745ZM388.919 244.5H390.919V242.5H388.919V244.5ZM388.919 261V263H390.919V261H388.919ZM346.519 261H344.519V263H346.519V261ZM346.519 251.2V249.2H344.519V251.2H346.519ZM351.419 251.2V253.2H353.419V251.2H351.419ZM351.419 190.8H353.419V188.8H351.419V190.8ZM346.519 190.8H344.519V192.8H346.519V190.8ZM346.519 181V179H344.519V181H346.519ZM366.119 181H368.119V179H366.119V181ZM366.119 190.8V192.8H368.119V190.8H366.119ZM361.219 190.8V188.8H359.219V190.8H361.219ZM361.219 251.2H359.219V253.2H361.219V251.2ZM379.119 251.2V253.2H381.119V251.2H379.119ZM379.119 244.5V242.5H377.119V244.5H379.119ZM386.919 244.5V261H390.919V244.5H386.919ZM388.919 259H346.519V263H388.919V259ZM348.519 261V251.2H344.519V261H348.519ZM346.519 253.2H351.419V249.2H346.519V253.2ZM353.419 251.2V190.8H349.419V251.2H353.419ZM351.419 188.8H346.519V192.8H351.419V188.8ZM348.519 190.8V181H344.519V190.8H348.519ZM346.519 183H366.119V179H346.519V183ZM364.119 181V190.8H368.119V181H364.119ZM366.119 188.8H361.219V192.8H366.119V188.8ZM359.219 190.8V251.2H363.219V190.8H359.219ZM361.219 253.2H379.119V249.2H361.219V253.2ZM381.119 251.2V244.5H377.119V251.2H381.119ZM379.119 246.5H388.919V242.5H379.119V246.5ZM408.191 190.8V188.8H406.191V190.8H408.191ZM408.191 251.2H406.191V253.2H408.191V251.2ZM413.091 251.2H415.091V249.2H413.091V251.2ZM413.091 261V263H415.091V261H413.091ZM393.491 261H391.491V263H393.491V261ZM393.491 251.2V249.2H391.491V251.2H393.491ZM398.391 251.2V253.2H400.391V251.2H398.391ZM398.391 190.8H400.391V188.8H398.391V190.8ZM393.491 190.8H391.491V192.8H393.491V190.8ZM393.491 181V179H391.491V181H393.491ZM413.091 181H415.091V179H413.091V181ZM413.091 190.8V192.8H415.091V190.8H413.091ZM406.191 190.8V251.2H410.191V190.8H406.191ZM408.191 253.2H413.091V249.2H408.191V253.2ZM411.091 251.2V261H415.091V251.2H411.091ZM413.091 259H393.491V263H413.091V259ZM395.491 261V251.2H391.491V261H395.491ZM393.491 253.2H398.391V249.2H393.491V253.2ZM400.391 251.2V190.8H396.391V251.2H400.391ZM398.391 188.8H393.491V192.8H398.391V188.8ZM395.491 190.8V181H391.491V190.8H395.491ZM393.491 183H413.091V179H393.491V183ZM411.091 181V190.8H415.091V181H411.091ZM413.091 188.8H408.191V192.8H413.091V188.8ZM448.926 197.5H446.926V199.5H448.926V197.5ZM448.926 190.8H450.926V188.8H448.926V190.8ZM431.026 190.8V188.8H429.026V190.8H431.026ZM431.026 215.2H429.026V217.2H431.026V215.2ZM452.126 215.2L453.54 213.786L452.954 213.2H452.126V215.2ZM458.726 221.8H460.726V220.972L460.14 220.386L458.726 221.8ZM458.726 254.4L460.14 255.814L460.726 255.228V254.4H458.726ZM452.126 261V263H452.954L453.54 262.414L452.126 261ZM435.126 261L433.711 262.414L434.297 263H435.126V261ZM431.026 256.9L432.44 255.486L429.026 252.072V256.9H431.026ZM431.026 261V263H433.026V261H431.026ZM421.226 261H419.226V263H421.226V261ZM421.226 244.5V242.5H419.226V244.5H421.226ZM431.026 244.5H433.026V242.5H431.026V244.5ZM431.026 251.2H429.026V253.2H431.026V251.2ZM448.926 251.2V253.2H450.926V251.2H448.926ZM448.926 225H450.926V223H448.926V225ZM427.826 225L426.411 226.414L426.997 227H427.826V225ZM421.226 218.4H419.226V219.228L419.811 219.814L421.226 218.4ZM421.226 187.6L419.811 186.186L419.226 186.772V187.6H421.226ZM427.826 181V179H426.997L426.411 179.586L427.826 181ZM444.826 181L446.24 179.586L445.654 179H444.826V181ZM448.926 185.1L447.511 186.514L450.926 189.928V185.1H448.926ZM448.926 181V179H446.926V181H448.926ZM458.726 181H460.726V179H458.726V181ZM458.726 197.5V199.5H460.726V197.5H458.726ZM450.926 197.5V190.8H446.926V197.5H450.926ZM448.926 188.8H431.026V192.8H448.926V188.8ZM429.026 190.8V215.2H433.026V190.8H429.026ZM431.026 217.2H452.126V213.2H431.026V217.2ZM450.711 216.614L457.311 223.214L460.14 220.386L453.54 213.786L450.711 216.614ZM456.726 221.8V254.4H460.726V221.8H456.726ZM457.311 252.986L450.711 259.586L453.54 262.414L460.14 255.814L457.311 252.986ZM452.126 259H435.126V263H452.126V259ZM436.54 259.586L432.44 255.486L429.611 258.314L433.711 262.414L436.54 259.586ZM429.026 256.9V261H433.026V256.9H429.026ZM431.026 259H421.226V263H431.026V259ZM423.226 261V244.5H419.226V261H423.226ZM421.226 246.5H431.026V242.5H421.226V246.5ZM429.026 244.5V251.2H433.026V244.5H429.026ZM431.026 253.2H448.926V249.2H431.026V253.2ZM450.926 251.2V225H446.926V251.2H450.926ZM448.926 223H427.826V227H448.926V223ZM429.24 223.586L422.64 216.986L419.811 219.814L426.411 226.414L429.24 223.586ZM423.226 218.4V187.6H419.226V218.4H423.226ZM422.64 189.014L429.24 182.414L426.411 179.586L419.811 186.186L422.64 189.014ZM427.826 183H444.826V179H427.826V183ZM443.411 182.414L447.511 186.514L450.34 183.686L446.24 179.586L443.411 182.414ZM450.926 185.1V181H446.926V185.1H450.926ZM448.926 183H458.726V179H448.926V183ZM456.726 181V197.5H460.726V181H456.726ZM458.726 195.5H448.926V199.5H458.726V195.5ZM506.05 181H508.05V179H506.05V181ZM506.05 197.5V199.5H508.05V197.5H506.05ZM496.25 197.5H494.25V199.5H496.25V197.5ZM496.25 190.8H498.25V188.8H496.25V190.8ZM490.95 190.8V188.8H488.95V190.8H490.95ZM490.95 251.2H488.95V253.2H490.95V251.2ZM495.85 251.2H497.85V249.2H495.85V251.2ZM495.85 261V263H497.85V261H495.85ZM476.25 261H474.25V263H476.25V261ZM476.25 251.2V249.2H474.25V251.2H476.25ZM481.15 251.2V253.2H483.15V251.2H481.15ZM481.15 190.8H483.15V188.8H481.15V190.8ZM475.85 190.8V188.8H473.85V190.8H475.85ZM475.85 197.5V199.5H477.85V197.5H475.85ZM466.05 197.5H464.05V199.5H466.05V197.5ZM466.05 181V179H464.05V181H466.05ZM504.05 181V197.5H508.05V181H504.05ZM506.05 195.5H496.25V199.5H506.05V195.5ZM498.25 197.5V190.8H494.25V197.5H498.25ZM496.25 188.8H490.95V192.8H496.25V188.8ZM488.95 190.8V251.2H492.95V190.8H488.95ZM490.95 253.2H495.85V249.2H490.95V253.2ZM493.85 251.2V261H497.85V251.2H493.85ZM495.85 259H476.25V263H495.85V259ZM478.25 261V251.2H474.25V261H478.25ZM476.25 253.2H481.15V249.2H476.25V253.2ZM483.15 251.2V190.8H479.15V251.2H483.15ZM481.15 188.8H475.85V192.8H481.15V188.8ZM473.85 190.8V197.5H477.85V190.8H473.85ZM475.85 195.5H466.05V199.5H475.85V195.5ZM468.05 197.5V181H464.05V197.5H468.05ZM466.05 183H506.05V179H466.05V183ZM549.14 251.1H551.14V249.1H549.14V251.1ZM549.14 261V263H551.14V261H549.14ZM529.44 261H527.44V263H529.44V261ZM529.44 251.1V249.1H527.44V251.1H529.44ZM533.34 251.1V253.1H535.589L535.327 250.866L533.34 251.1ZM532.54 244.3L534.527 244.066L534.319 242.3H532.54V244.3ZM520.64 244.3V242.3H518.888L518.658 244.038L520.64 244.3ZM519.74 251.1L517.758 250.838L517.458 253.1H519.74V251.1ZM523.64 251.1H525.64V249.1H523.64V251.1ZM523.64 261V263H525.64V261H523.64ZM503.94 261H501.94V263H503.94V261ZM503.94 251.1V249.1H501.94V251.1H503.94ZM509.84 251.1V253.1H511.605L511.825 251.349L509.84 251.1ZM518.64 181V179H516.876L516.656 180.751L518.64 181ZM534.44 181L536.424 180.748L536.202 179H534.44V181ZM543.34 251.1L541.356 251.352L541.578 253.1H543.34V251.1ZM531.24 234.5V236.5H533.51L533.225 234.249L531.24 234.5ZM526.54 197.4L528.525 197.149H524.556L526.54 197.4ZM521.84 234.5L519.856 234.249L519.571 236.5H521.84V234.5ZM547.14 251.1V261H551.14V251.1H547.14ZM549.14 259H529.44V263H549.14V259ZM531.44 261V251.1H527.44V261H531.44ZM529.44 253.1H533.34V249.1H529.44V253.1ZM535.327 250.866L534.527 244.066L530.554 244.534L531.354 251.334L535.327 250.866ZM532.54 242.3H520.64V246.3H532.54V242.3ZM518.658 244.038L517.758 250.838L521.723 251.362L522.623 244.562L518.658 244.038ZM519.74 253.1H523.64V249.1H519.74V253.1ZM521.64 251.1V261H525.64V251.1H521.64ZM523.64 259H503.94V263H523.64V259ZM505.94 261V251.1H501.94V261H505.94ZM503.94 253.1H509.84V249.1H503.94V253.1ZM511.825 251.349L520.625 181.249L516.656 180.751L507.856 250.851L511.825 251.349ZM518.64 183H534.44V179H518.64V183ZM532.456 181.252L541.356 251.352L545.324 250.848L536.424 180.748L532.456 181.252ZM543.34 253.1H549.14V249.1H543.34V253.1ZM533.225 234.249L528.525 197.149L524.556 197.651L529.256 234.751L533.225 234.249ZM524.556 197.149L519.856 234.249L523.825 234.751L528.525 197.651L524.556 197.149ZM521.84 236.5H531.24V232.5H521.84V236.5Z" fill="black"/>
<path d="M261.419 62.25V58.9H252.469V71.1H263.019L266.319 74.4V90.7L263.019 94H254.519L252.469 91.95V94H247.569V85.75H252.469V89.1H261.419V76H250.869L247.569 72.7V57.3L250.869 54H259.369L261.419 56.05V54H266.319V62.25H261.419ZM291.181 57.3V72.7L287.881 76H277.331V89.1H279.781V94H269.981V89.1H272.431V58.9H269.981V54H287.881L291.181 57.3ZM286.281 58.9H277.331V71.1H286.281V58.9ZM297.647 94L294.347 90.7V57.3L297.647 54H311.047L314.347 57.3V90.7L311.047 94H297.647ZM309.397 58.9H299.247V89.1H309.397V58.9ZM339.716 89.1V94H333.766L328.466 76H325.866V89.1H328.316V94H318.516V89.1H320.966V58.9H318.516V54H336.366L339.716 57.3V72.7L336.366 76H333.566L337.416 89.1H339.716ZM325.866 71.1H334.816V58.9H325.866V71.1ZM363.761 54V62.25H358.861V58.9H356.211V89.1H358.661V94H348.861V89.1H351.311V58.9H348.661V62.25H343.761V54H363.761ZM410.802 62.25H405.902V58.9H396.952V89.1H405.902V85.75H410.802V90.7L407.502 94H395.352L392.052 90.7V57.3L395.352 54H403.852L405.902 56.05V54H410.802V62.25ZM434.785 85.75V94H413.585V89.1H416.035V58.9H413.585V54H423.385V58.9H420.935V89.1H429.885V85.75H434.785ZM459.015 58.9H456.565V90.7L453.265 94H441.015L437.715 90.7V58.9H435.265V54H445.115V58.9H442.665V89.1H451.665V58.9H449.215V54H459.015V58.9ZM481.551 73.6L484.101 76V90.7L480.801 94H462.901V89.1H465.351V58.9H462.901V54H480.801L484.101 57.3V71.1L481.551 73.6ZM470.251 71.1H479.201V58.9H470.251V71.1ZM479.201 76.15H470.251V89.1H479.201V76.15Z" fill="black"/>
<path d="M261.419 62.25H259.419V64.25H261.419V62.25ZM261.419 58.9H263.419V56.9H261.419V58.9ZM252.469 58.9V56.9H250.469V58.9H252.469ZM252.469 71.1H250.469V73.1H252.469V71.1ZM263.019 71.1L264.433 69.6858L263.848 69.1H263.019V71.1ZM266.319 74.4H268.319V73.5716L267.733 72.9858L266.319 74.4ZM266.319 90.7L267.733 92.1142L268.319 91.5284V90.7H266.319ZM263.019 94V96H263.848L264.433 95.4142L263.019 94ZM254.519 94L253.105 95.4142L253.691 96H254.519V94ZM252.469 91.95L253.883 90.5358L250.469 87.1216V91.95H252.469ZM252.469 94V96H254.469V94H252.469ZM247.569 94H245.569V96H247.569V94ZM247.569 85.75V83.75H245.569V85.75H247.569ZM252.469 85.75H254.469V83.75H252.469V85.75ZM252.469 89.1H250.469V91.1H252.469V89.1ZM261.419 89.1V91.1H263.419V89.1H261.419ZM261.419 76H263.419V74H261.419V76ZM250.869 76L249.455 77.4142L250.041 78H250.869V76ZM247.569 72.7H245.569V73.5284L246.155 74.1142L247.569 72.7ZM247.569 57.3L246.155 55.8858L245.569 56.4716V57.3H247.569ZM250.869 54V52H250.041L249.455 52.5858L250.869 54ZM259.369 54L260.783 52.5858L260.198 52H259.369V54ZM261.419 56.05L260.005 57.4642L263.419 60.8784V56.05H261.419ZM261.419 54V52H259.419V54H261.419ZM266.319 54H268.319V52H266.319V54ZM266.319 62.25V64.25H268.319V62.25H266.319ZM263.419 62.25V58.9H259.419V62.25H263.419ZM261.419 56.9H252.469V60.9H261.419V56.9ZM250.469 58.9V71.1H254.469V58.9H250.469ZM252.469 73.1H263.019V69.1H252.469V73.1ZM261.605 72.5142L264.905 75.8142L267.733 72.9858L264.433 69.6858L261.605 72.5142ZM264.319 74.4V90.7H268.319V74.4H264.319ZM264.905 89.2858L261.605 92.5858L264.433 95.4142L267.733 92.1142L264.905 89.2858ZM263.019 92H254.519V96H263.019V92ZM255.933 92.5858L253.883 90.5358L251.055 93.3642L253.105 95.4142L255.933 92.5858ZM250.469 91.95V94H254.469V91.95H250.469ZM252.469 92H247.569V96H252.469V92ZM249.569 94V85.75H245.569V94H249.569ZM247.569 87.75H252.469V83.75H247.569V87.75ZM250.469 85.75V89.1H254.469V85.75H250.469ZM252.469 91.1H261.419V87.1H252.469V91.1ZM263.419 89.1V76H259.419V89.1H263.419ZM261.419 74H250.869V78H261.419V74ZM252.283 74.5858L248.983 71.2858L246.155 74.1142L249.455 77.4142L252.283 74.5858ZM249.569 72.7V57.3H245.569V72.7H249.569ZM248.983 58.7142L252.283 55.4142L249.455 52.5858L246.155 55.8858L248.983 58.7142ZM250.869 56H259.369V52H250.869V56ZM257.955 55.4142L260.005 57.4642L262.833 54.6358L260.783 52.5858L257.955 55.4142ZM263.419 56.05V54H259.419V56.05H263.419ZM261.419 56H266.319V52H261.419V56ZM264.319 54V62.25H268.319V54H264.319ZM266.319 60.25H261.419V64.25H266.319V60.25ZM291.181 57.3H293.181V56.4716L292.596 55.8858L291.181 57.3ZM291.181 72.7L292.596 74.1142L293.181 73.5284V72.7H291.181ZM287.881 76V78H288.71L289.296 77.4142L287.881 76ZM277.331 76V74H275.331V76H277.331ZM277.331 89.1H275.331V91.1H277.331V89.1ZM279.781 89.1H281.781V87.1H279.781V89.1ZM279.781 94V96H281.781V94H279.781ZM269.981 94H267.981V96H269.981V94ZM269.981 89.1V87.1H267.981V89.1H269.981ZM272.431 89.1V91.1H274.431V89.1H272.431ZM272.431 58.9H274.431V56.9H272.431V58.9ZM269.981 58.9H267.981V60.9H269.981V58.9ZM269.981 54V52H267.981V54H269.981ZM287.881 54L289.296 52.5858L288.71 52H287.881V54ZM286.281 58.9H288.281V56.9H286.281V58.9ZM277.331 58.9V56.9H275.331V58.9H277.331ZM277.331 71.1H275.331V73.1H277.331V71.1ZM286.281 71.1V73.1H288.281V71.1H286.281ZM289.181 57.3V72.7H293.181V57.3H289.181ZM289.767 71.2858L286.467 74.5858L289.296 77.4142L292.596 74.1142L289.767 71.2858ZM287.881 74H277.331V78H287.881V74ZM275.331 76V89.1H279.331V76H275.331ZM277.331 91.1H279.781V87.1H277.331V91.1ZM277.781 89.1V94H281.781V89.1H277.781ZM279.781 92H269.981V96H279.781V92ZM271.981 94V89.1H267.981V94H271.981ZM269.981 91.1H272.431V87.1H269.981V91.1ZM274.431 89.1V58.9H270.431V89.1H274.431ZM272.431 56.9H269.981V60.9H272.431V56.9ZM271.981 58.9V54H267.981V58.9H271.981ZM269.981 56H287.881V52H269.981V56ZM286.467 55.4142L289.767 58.7142L292.596 55.8858L289.296 52.5858L286.467 55.4142ZM286.281 56.9H277.331V60.9H286.281V56.9ZM275.331 58.9V71.1H279.331V58.9H275.331ZM277.331 73.1H286.281V69.1H277.331V73.1ZM288.281 71.1V58.9H284.281V71.1H288.281ZM297.647 94L296.232 95.4142L296.818 96H297.647V94ZM294.347 90.7H292.347V91.5284L292.932 92.1142L294.347 90.7ZM294.347 57.3L292.932 55.8858L292.347 56.4716V57.3H294.347ZM297.647 54V52H296.818L296.232 52.5858L297.647 54ZM311.047 54L312.461 52.5858L311.875 52H311.047V54ZM314.347 57.3H316.347V56.4716L315.761 55.8858L314.347 57.3ZM314.347 90.7L315.761 92.1142L316.347 91.5284V90.7H314.347ZM311.047 94V96H311.875L312.461 95.4142L311.047 94ZM309.397 58.9H311.397V56.9H309.397V58.9ZM299.247 58.9V56.9H297.247V58.9H299.247ZM299.247 89.1H297.247V91.1H299.247V89.1ZM309.397 89.1V91.1H311.397V89.1H309.397ZM299.061 92.5858L295.761 89.2858L292.932 92.1142L296.232 95.4142L299.061 92.5858ZM296.347 90.7V57.3H292.347V90.7H296.347ZM295.761 58.7142L299.061 55.4142L296.232 52.5858L292.932 55.8858L295.761 58.7142ZM297.647 56H311.047V52H297.647V56ZM309.632 55.4142L312.932 58.7142L315.761 55.8858L312.461 52.5858L309.632 55.4142ZM312.347 57.3V90.7H316.347V57.3H312.347ZM312.932 89.2858L309.632 92.5858L312.461 95.4142L315.761 92.1142L312.932 89.2858ZM311.047 92H297.647V96H311.047V92ZM309.397 56.9H299.247V60.9H309.397V56.9ZM297.247 58.9V89.1H301.247V58.9H297.247ZM299.247 91.1H309.397V87.1H299.247V91.1ZM311.397 89.1V58.9H307.397V89.1H311.397ZM339.716 89.1H341.716V87.1H339.716V89.1ZM339.716 94V96H341.716V94H339.716ZM333.766 94L331.848 94.5649L332.27 96H333.766V94ZM328.466 76L330.385 75.4351L329.962 74H328.466V76ZM325.866 76V74H323.866V76H325.866ZM325.866 89.1H323.866V91.1H325.866V89.1ZM328.316 89.1H330.316V87.1H328.316V89.1ZM328.316 94V96H330.316V94H328.316ZM318.516 94H316.516V96H318.516V94ZM318.516 89.1V87.1H316.516V89.1H318.516ZM320.966 89.1V91.1H322.966V89.1H320.966ZM320.966 58.9H322.966V56.9H320.966V58.9ZM318.516 58.9H316.516V60.9H318.516V58.9ZM318.516 54V52H316.516V54H318.516ZM336.366 54L337.77 52.5752L337.186 52H336.366V54ZM339.716 57.3H341.716V56.4627L341.12 55.8752L339.716 57.3ZM339.716 72.7L341.12 74.1248L341.716 73.5372V72.7H339.716ZM336.366 76V78H337.186L337.77 77.4248L336.366 76ZM333.566 76V74H330.894L331.648 76.5639L333.566 76ZM337.416 89.1L335.498 89.6639L335.92 91.1H337.416V89.1ZM325.866 71.1H323.866V73.1H325.866V71.1ZM334.816 71.1V73.1H336.816V71.1H334.816ZM334.816 58.9H336.816V56.9H334.816V58.9ZM325.866 58.9V56.9H323.866V58.9H325.866ZM337.716 89.1V94H341.716V89.1H337.716ZM339.716 92H333.766V96H339.716V92ZM335.685 93.4351L330.385 75.4351L326.548 76.5649L331.848 94.5649L335.685 93.4351ZM328.466 74H325.866V78H328.466V74ZM323.866 76V89.1H327.866V76H323.866ZM325.866 91.1H328.316V87.1H325.866V91.1ZM326.316 89.1V94H330.316V89.1H326.316ZM328.316 92H318.516V96H328.316V92ZM320.516 94V89.1H316.516V94H320.516ZM318.516 91.1H320.966V87.1H318.516V91.1ZM322.966 89.1V58.9H318.966V89.1H322.966ZM320.966 56.9H318.516V60.9H320.966V56.9ZM320.516 58.9V54H316.516V58.9H320.516ZM318.516 56H336.366V52H318.516V56ZM334.963 55.4248L338.313 58.7248L341.12 55.8752L337.77 52.5752L334.963 55.4248ZM337.716 57.3V72.7H341.716V57.3H337.716ZM338.313 71.2752L334.963 74.5752L337.77 77.4248L341.12 74.1248L338.313 71.2752ZM336.366 74H333.566V78H336.366V74ZM331.648 76.5639L335.498 89.6639L339.335 88.5361L335.485 75.4361L331.648 76.5639ZM337.416 91.1H339.716V87.1H337.416V91.1ZM325.866 73.1H334.816V69.1H325.866V73.1ZM336.816 71.1V58.9H332.816V71.1H336.816ZM334.816 56.9H325.866V60.9H334.816V56.9ZM323.866 58.9V71.1H327.866V58.9H323.866ZM363.761 54H365.761V52H363.761V54ZM363.761 62.25V64.25H365.761V62.25H363.761ZM358.861 62.25H356.861V64.25H358.861V62.25ZM358.861 58.9H360.861V56.9H358.861V58.9ZM356.211 58.9V56.9H354.211V58.9H356.211ZM356.211 89.1H354.211V91.1H356.211V89.1ZM358.661 89.1H360.661V87.1H358.661V89.1ZM358.661 94V96H360.661V94H358.661ZM348.861 94H346.861V96H348.861V94ZM348.861 89.1V87.1H346.861V89.1H348.861ZM351.311 89.1V91.1H353.311V89.1H351.311ZM351.311 58.9H353.311V56.9H351.311V58.9ZM348.661 58.9V56.9H346.661V58.9H348.661ZM348.661 62.25V64.25H350.661V62.25H348.661ZM343.761 62.25H341.761V64.25H343.761V62.25ZM343.761 54V52H341.761V54H343.761ZM361.761 54V62.25H365.761V54H361.761ZM363.761 60.25H358.861V64.25H363.761V60.25ZM360.861 62.25V58.9H356.861V62.25H360.861ZM358.861 56.9H356.211V60.9H358.861V56.9ZM354.211 58.9V89.1H358.211V58.9H354.211ZM356.211 91.1H358.661V87.1H356.211V91.1ZM356.661 89.1V94H360.661V89.1H356.661ZM358.661 92H348.861V96H358.661V92ZM350.861 94V89.1H346.861V94H350.861ZM348.861 91.1H351.311V87.1H348.861V91.1ZM353.311 89.1V58.9H349.311V89.1H353.311ZM351.311 56.9H348.661V60.9H351.311V56.9ZM346.661 58.9V62.25H350.661V58.9H346.661ZM348.661 60.25H343.761V64.25H348.661V60.25ZM345.761 62.25V54H341.761V62.25H345.761ZM343.761 56H363.761V52H343.761V56ZM410.802 62.25V64.25H412.802V62.25H410.802ZM405.902 62.25H403.902V64.25H405.902V62.25ZM405.902 58.9H407.902V56.9H405.902V58.9ZM396.952 58.9V56.9H394.952V58.9H396.952ZM396.952 89.1H394.952V91.1H396.952V89.1ZM405.902 89.1V91.1H407.902V89.1H405.902ZM405.902 85.75V83.75H403.902V85.75H405.902ZM410.802 85.75H412.802V83.75H410.802V85.75ZM410.802 90.7L412.216 92.1142L412.802 91.5284V90.7H410.802ZM407.502 94V96H408.33L408.916 95.4142L407.502 94ZM395.352 94L393.937 95.4142L394.523 96H395.352V94ZM392.052 90.7H390.052V91.5284L390.637 92.1142L392.052 90.7ZM392.052 57.3L390.637 55.8858L390.052 56.4716V57.3H392.052ZM395.352 54V52H394.523L393.937 52.5858L395.352 54ZM403.852 54L405.266 52.5858L404.68 52H403.852V54ZM405.902 56.05L404.487 57.4642L407.902 60.8784V56.05H405.902ZM405.902 54V52H403.902V54H405.902ZM410.802 54H412.802V52H410.802V54ZM410.802 60.25H405.902V64.25H410.802V60.25ZM407.902 62.25V58.9H403.902V62.25H407.902ZM405.902 56.9H396.952V60.9H405.902V56.9ZM394.952 58.9V89.1H398.952V58.9H394.952ZM396.952 91.1H405.902V87.1H396.952V91.1ZM407.902 89.1V85.75H403.902V89.1H407.902ZM405.902 87.75H410.802V83.75H405.902V87.75ZM408.802 85.75V90.7H412.802V85.75H408.802ZM409.387 89.2858L406.087 92.5858L408.916 95.4142L412.216 92.1142L409.387 89.2858ZM407.502 92H395.352V96H407.502V92ZM396.766 92.5858L393.466 89.2858L390.637 92.1142L393.937 95.4142L396.766 92.5858ZM394.052 90.7V57.3H390.052V90.7H394.052ZM393.466 58.7142L396.766 55.4142L393.937 52.5858L390.637 55.8858L393.466 58.7142ZM395.352 56H403.852V52H395.352V56ZM402.437 55.4142L404.487 57.4642L407.316 54.6358L405.266 52.5858L402.437 55.4142ZM407.902 56.05V54H403.902V56.05H407.902ZM405.902 56H410.802V52H405.902V56ZM408.802 54V62.25H412.802V54H408.802ZM434.785 85.75H436.785V83.75H434.785V85.75ZM434.785 94V96H436.785V94H434.785ZM413.585 94H411.585V96H413.585V94ZM413.585 89.1V87.1H411.585V89.1H413.585ZM416.035 89.1V91.1H418.035V89.1H416.035ZM416.035 58.9H418.035V56.9H416.035V58.9ZM413.585 58.9H411.585V60.9H413.585V58.9ZM413.585 54V52H411.585V54H413.585ZM423.385 54H425.385V52H423.385V54ZM423.385 58.9V60.9H425.385V58.9H423.385ZM420.935 58.9V56.9H418.935V58.9H420.935ZM420.935 89.1H418.935V91.1H420.935V89.1ZM429.885 89.1V91.1H431.885V89.1H429.885ZM429.885 85.75V83.75H427.885V85.75H429.885ZM432.785 85.75V94H436.785V85.75H432.785ZM434.785 92H413.585V96H434.785V92ZM415.585 94V89.1H411.585V94H415.585ZM413.585 91.1H416.035V87.1H413.585V91.1ZM418.035 89.1V58.9H414.035V89.1H418.035ZM416.035 56.9H413.585V60.9H416.035V56.9ZM415.585 58.9V54H411.585V58.9H415.585ZM413.585 56H423.385V52H413.585V56ZM421.385 54V58.9H425.385V54H421.385ZM423.385 56.9H420.935V60.9H423.385V56.9ZM418.935 58.9V89.1H422.935V58.9H418.935ZM420.935 91.1H429.885V87.1H420.935V91.1ZM431.885 89.1V85.75H427.885V89.1H431.885ZM429.885 87.75H434.785V83.75H429.885V87.75ZM459.015 58.9V60.9H461.015V58.9H459.015ZM456.565 58.9V56.9H454.565V58.9H456.565ZM456.565 90.7L457.979 92.1142L458.565 91.5284V90.7H456.565ZM453.265 94V96H454.093L454.679 95.4142L453.265 94ZM441.015 94L439.6 95.4142L440.186 96H441.015V94ZM437.715 90.7H435.715V91.5284L436.3 92.1142L437.715 90.7ZM437.715 58.9H439.715V56.9H437.715V58.9ZM435.265 58.9H433.265V60.9H435.265V58.9ZM435.265 54V52H433.265V54H435.265ZM445.115 54H447.115V52H445.115V54ZM445.115 58.9V60.9H447.115V58.9H445.115ZM442.665 58.9V56.9H440.665V58.9H442.665ZM442.665 89.1H440.665V91.1H442.665V89.1ZM451.665 89.1V91.1H453.665V89.1H451.665ZM451.665 58.9H453.665V56.9H451.665V58.9ZM449.215 58.9H447.215V60.9H449.215V58.9ZM449.215 54V52H447.215V54H449.215ZM459.015 54H461.015V52H459.015V54ZM459.015 56.9H456.565V60.9H459.015V56.9ZM454.565 58.9V90.7H458.565V58.9H454.565ZM455.15 89.2858L451.85 92.5858L454.679 95.4142L457.979 92.1142L455.15 89.2858ZM453.265 92H441.015V96H453.265V92ZM442.429 92.5858L439.129 89.2858L436.3 92.1142L439.6 95.4142L442.429 92.5858ZM439.715 90.7V58.9H435.715V90.7H439.715ZM437.715 56.9H435.265V60.9H437.715V56.9ZM437.265 58.9V54H433.265V58.9H437.265ZM435.265 56H445.115V52H435.265V56ZM443.115 54V58.9H447.115V54H443.115ZM445.115 56.9H442.665V60.9H445.115V56.9ZM440.665 58.9V89.1H444.665V58.9H440.665ZM442.665 91.1H451.665V87.1H442.665V91.1ZM453.665 89.1V58.9H449.665V89.1H453.665ZM451.665 56.9H449.215V60.9H451.665V56.9ZM451.215 58.9V54H447.215V58.9H451.215ZM449.215 56H459.015V52H449.215V56ZM457.015 54V58.9H461.015V54H457.015ZM481.551 73.6L480.151 72.1719L478.664 73.6294L480.181 75.0564L481.551 73.6ZM484.101 76H486.101V75.1359L485.472 74.5436L484.101 76ZM484.101 90.7L485.515 92.1142L486.101 91.5284V90.7H484.101ZM480.801 94V96H481.63L482.215 95.4142L480.801 94ZM462.901 94H460.901V96H462.901V94ZM462.901 89.1V87.1H460.901V89.1H462.901ZM465.351 89.1V91.1H467.351V89.1H465.351ZM465.351 58.9H467.351V56.9H465.351V58.9ZM462.901 58.9H460.901V60.9H462.901V58.9ZM462.901 54V52H460.901V54H462.901ZM480.801 54L482.215 52.5858L481.63 52H480.801V54ZM484.101 57.3H486.101V56.4716L485.515 55.8858L484.101 57.3ZM484.101 71.1L485.501 72.5281L486.101 71.94V71.1H484.101ZM470.251 71.1H468.251V73.1H470.251V71.1ZM479.201 71.1V73.1H481.201V71.1H479.201ZM479.201 58.9H481.201V56.9H479.201V58.9ZM470.251 58.9V56.9H468.251V58.9H470.251ZM479.201 76.15H481.201V74.15H479.201V76.15ZM470.251 76.15V74.15H468.251V76.15H470.251ZM470.251 89.1H468.251V91.1H470.251V89.1ZM479.201 89.1V91.1H481.201V89.1H479.201ZM480.181 75.0564L482.731 77.4564L485.472 74.5436L482.922 72.1436L480.181 75.0564ZM482.101 76V90.7H486.101V76H482.101ZM482.687 89.2858L479.387 92.5858L482.215 95.4142L485.515 92.1142L482.687 89.2858ZM480.801 92H462.901V96H480.801V92ZM464.901 94V89.1H460.901V94H464.901ZM462.901 91.1H465.351V87.1H462.901V91.1ZM467.351 89.1V58.9H463.351V89.1H467.351ZM465.351 56.9H462.901V60.9H465.351V56.9ZM464.901 58.9V54H460.901V58.9H464.901ZM462.901 56H480.801V52H462.901V56ZM479.387 55.4142L482.687 58.7142L485.515 55.8858L482.215 52.5858L479.387 55.4142ZM482.101 57.3V71.1H486.101V57.3H482.101ZM482.701 69.6719L480.151 72.1719L482.951 75.0281L485.501 72.5281L482.701 69.6719ZM470.251 73.1H479.201V69.1H470.251V73.1ZM481.201 71.1V58.9H477.201V71.1H481.201ZM479.201 56.9H470.251V60.9H479.201V56.9ZM468.251 58.9V71.1H472.251V58.9H468.251ZM479.201 74.15H470.251V78.15H479.201V74.15ZM468.251 76.15V89.1H472.251V76.15H468.251ZM470.251 91.1H479.201V87.1H470.251V91.1ZM481.201 89.1V76.15H477.201V89.1H481.201Z" fill="white"/>
</svg>
